<svg height="512" viewBox="0 0 512 512" width="512" xmlns="http://www.w3.org/2000/svg"><g id="Fill_out_line" data-name="Fill out line"><path d="m370.1 402.35986c3.01 5.88013 1.45007 19.24024-6.37 24.81006a12.81016 12.81016 0 0 1 -2.1 1.23 17.41874 17.41874 0 0 1 -5.72009 1.62012c.15015 6.90991-2.72 15.6001-9.35986 19.06982a5.23561 5.23561 0 0 1 -.53.27 16.56625 16.56625 0 0 1 -7.23 1.69019 10.82841 10.82841 0 0 1 .05 4.8999c-1.90011 7.01005-8.87005 11.40991-15.06005 12.84005a16.53267 16.53267 0 0 1 -5.93994.40991 7.82217 7.82217 0 0 1 -2.09009-.61011c-.04.2002-.08008.41016-.13.62012-1.53992 6.47-7.61 13.49-12.01 14.57007-5.35 1.32007-13.38-2.53-17.84-8.11011-2.08008 1.98-4.07007 3.78-5.96 5.3501-5.23 4.35986-9.62012 6.98-12.67005 6.98a19.9462 19.9462 0 0 1 -9.03-2.03 17.30721 17.30721 0 0 1 -7-6.26 17.23093 17.23093 0 0 1 -3.10992.29002c-7.48 0-13.21-3.49-16.37-8.85986a19.825 19.825 0 0 1 -2.58-7.64014 26.8449 26.8449 0 0 1 -5.05.5 21.166 21.166 0 0 1 -16.73-8.79 20.459 20.459 0 0 1 -3.48-7.5 25.36252 25.36252 0 0 1 -3.79.29c-26.64 0-31.86-21.8999-20.22-38.77v-.01h-.01c-3.23-4.7-5.98-9.3999-8.68-14.09985-8.24-14.37015-15.93-28.74027-35.09-43.12015l48-72a287.27909 287.27909 0 0 1 38.27 2.51 48.66966 48.66966 0 0 1 11.13-6.36011c10.2-4.14989 20.4-4.14989 30.6-4.14989 24 0 40 16 64 8l48 72c-10.97 10.97-10.65991 21.93994-14.53 32.90991a41.65485 41.65485 0 0 1 -3.35 7.27c5.51 2.15017 10.16 6.64016 11.98 10.17995z" fill="#f5a971"/><path d="m320 280 56 80 24-16-56-88z" fill="#b1cdb4"/><path d="m496 112-168 152 80 104 88-72z" fill="#0e638b"/><path d="m192 280-56 80-24-16 56-88z" fill="#b1cdb4"/><path d="m16 112 168 152-80 104-88-72z" fill="#0e638b"/><path d="m416 48v144a24 24 0 0 1 -24 24h-109.33008l-26.66992 40-26.67-40h-109.33a24 24 0 0 1 -24-24v-144a24 24 0 0 1 24-24h272a24 24 0 0 1 24 24z" fill="#f3b73f"/><rect fill="#0e638b" height="16" rx="8" width="272" x="120" y="184"/><g fill="#537ec2"><path d="m144 136h32v32h-32z"/><path d="m208 112h32v56h-32z"/><path d="m280 136h32v32h-32z"/><path d="m344 104h28v64h-28z"/></g><path d="m384 48h-44l6.26147 10.43579-50.05147 31.28198-63.00538-42.00384a16 16 0 0 0 -19.41132 1.27155l-58.68494 51.34933a4 4 0 0 0 -.37637 5.64424l10.53586 12.04172a4 4 0 0 0 5.6444.37638l54.07554-47.3161 62.207 41.47106a16 16 0 0 0 17.35517.25512l54.06125-33.78843 5.38879 8.9812z" fill="#03999c"/><path d="m384 180h-256a12 12 0 0 0 0 24h256a12 12 0 0 0 0-24zm0 16h-256a4 4 0 0 1 0-8h256a4 4 0 0 1 0 8z"/><path d="m144 172h32a3.99891 3.99891 0 0 0 4-4v-32a3.99891 3.99891 0 0 0 -4-4h-32a3.99891 3.99891 0 0 0 -4 4v32a3.99891 3.99891 0 0 0 4 4zm4-32h24v24h-24z"/><path d="m208 108a3.99891 3.99891 0 0 0 -4 4v56a3.99891 3.99891 0 0 0 4 4h32a3.99891 3.99891 0 0 0 4-4v-56a3.99891 3.99891 0 0 0 -4-4zm28 56h-24v-48h24z"/><path d="m280 132a3.999 3.999 0 0 0 -4 4v32a3.999 3.999 0 0 0 4 4h32a3.999 3.999 0 0 0 4-4v-32a3.999 3.999 0 0 0 -4-4zm28 32h-24v-24h24z"/><path d="m344 100a3.999 3.999 0 0 0 -4 4v64a3.999 3.999 0 0 0 4 4h28a3.999 3.999 0 0 0 4-4v-64a3.999 3.999 0 0 0 -4-4zm24 64h-20v-56h20z"/><path d="m424 48a32.04239 32.04239 0 0 0 -32-32h-272a32.04239 32.04239 0 0 0 -32 32v118.3501l-72-65.1401v16.18018l76 68.76977v5.84005a28.03079 28.03079 0 0 0 28 28h9.41l49.17 44.49-75.24 97.8-87.34-71.45992v15.5l82.93 67.85986a7.98692 7.98692 0 0 0 5.07 1.81006c.3 0 .61-.02.91-.05a8.038 8.038 0 0 0 5.43006-3.07007l10.36-13.47 10.86 7.25a8.0079 8.0079 0 0 0 9.17-.21c10.49 10.03 16.25 20.1001 22.29 30.65991 2.3 4.03028 4.66 8.16016 7.31 12.33008-5.36005 10.36011-5.89 21.74-1.17005 30.72 3.02 5.75 10.79 15.29 29.22 15.82007a29.58315 29.58315 0 0 0 24.74 16.01 26.16663 26.16663 0 0 0 6.51 9.23 26.7924 26.7924 0 0 0 17.86999 6.78001 26.84162 26.84162 0 0 0 19.64 8c5.09 0 10.84-2.89014 18.58-9.49 4.81006 3.45 10.48 5.53 15.62012 5.53a17.93494 17.93494 0 0 0 4.18994-.49c5.82-1.44019 12.01-7.40015 15.54-14.28 10.37988-.62988 22.36987-7.72 25.49-19.23.03-.1001.05994-.21.07995-.31006a28.44333 28.44333 0 0 0 2.77991-1.12988c8.11008-3.79 12.56008-12.09006 13.98008-20.26022.53992-.21 1.07-.43994 1.6-.68994 5.79-2.7 10.29-8.0498 12.68994-15.0498 2.61011-7.63013 2.43006-16.22022-.47-21.88013a29.8388 29.8388 0 0 0 -8.71-9.79 92.827 92.827 0 0 0 3.25-10.99 71.67835 71.67835 0 0 1 3.02-10.03 8.47393 8.47393 0 0 0 1.23006.09003 8.03175 8.03175 0 0 0 4.42993-1.34009l10.86011-7.25 10.35986 13.47a8.03816 8.03816 0 0 0 5.43018 3.07007c.29992.03.60986.05.90991.05a7.98708 7.98708 0 0 0 5.07007-1.81006l82.92994-67.85008v-15.50976l-87.34009 71.46-75.24-97.8 49.17018-44.49008h9.40991a28.03083 28.03083 0 0 0 28-28v-5.84009l76-68.76v-16.19991l-72 65.1501zm-289.03 306.5-10.27-6.84009 56.21-73.08984 5.89 5.88993zm38.46 36.65991c-6.91-12.09985-14.05-24.58984-28.43-37.03979l48.96-69.94019c45.1 1.5 81.19 12.62012 99.2099 30.65015 6.78 6.77978 12.42017 17.49 5.97009 25.35986-4.37 5.32007-14.03 7.75-24.92.48-12.13991-8.08986-25.98999-6.93994-38.19999-5.92994-14.14 1.17993-25.32 2.09985-32.69-8.96a4.00216 4.00216 0 1 0 -6.66 4.43994c9.99 14.99 25.25 13.72 40.01 12.5 3.23-.27 6.5-.54 9.75-.63989-5.25 22.27978-17.12 46.34985-25.36 55.18994a40.3112 40.3112 0 0 1 -17.53 10.73001 27.3445 27.3445 0 0 1 -20.98-1.82007c-3.37-4.97993-6.3-10.07983-9.13-15.02002zm93.71 92.84009a15.63383 15.63383 0 0 1 -8.77-2.48 52.11344 52.11344 0 0 0 14.46008-10.68994 94.0605 94.0605 0 0 0 7.18992-8.13006 15.00059 15.00059 0 0 0 .57007 12.33008c-9.09007 8.25992-12.56007 8.96992-13.45007 8.96992zm41.95008-10.01c-2.25 3.36011-5 5.55-6.44007 5.90991-3.4901.86009-10.45001-2.13991-14.19001-7.29981-1.11-1.53-4.49-6.19019 5.31006-15.99024a5.20019 5.20019 0 0 1 3.99-1.58984 9.99367 9.99367 0 0 1 2.73.41992c5.64 1.6001 10.71 6.91992 11.37 9.73.49994 2.14012-.56001 5.50999-2.76997 8.82006zm25.88992-19.0901c-1.81006 6.68018-10.06006 10.21-15.05 10.39014a12.67166 12.67166 0 0 0 -.28992-1.96c-1.22009-5.18018-6.77-10.97022-13.04-14.05a11.51477 11.51477 0 0 1 -.09-1.28c0-4.82007 7.33008-10.81006 13.73-11.25a8.18268 8.18268 0 0 1 3.06006.33008c5.21 1.71 10.40991 9.22 11.57 14.77978a7.12163 7.12163 0 0 1 .10986 3.04zm9.34009-9.15991a14.58487 14.58487 0 0 1 -2.65015.95c-2.62994-7.17999-8.62994-14.83013-15.85988-17.20999a15.27458 15.27458 0 0 0 -1.83008-.45 15.46083 15.46083 0 0 1 6.9-11.53 9.35487 9.35487 0 0 1 4.91-1.59009c6.21-.28 13.11 5.29 15.13989 9.23023a12.21666 12.21666 0 0 1 .98 4.96c.13013 5.94991-2.43987 13.22994-7.5898 15.63986zm22.01-29.03c-.77 2.26-2.63013 6.3-6.39014 8.06006-.21.1001-.41992.17993-.62988.27a15.7893 15.7893 0 0 0 -1.26-3.55c-2.55-4.97-9.82007-11.84009-18.48-13.3a15.48771 15.48771 0 0 1 6.90993-11.65005 10.11523 10.11523 0 0 1 8.45-1.2002c5.04 1.33008 9.95007 5.62012 11.61011 8.84009 1.18989 2.32011 1.51995 7.50004-.21003 12.53011zm-6.21009-41.67999a64.03613 64.03613 0 0 1 -4.02 12.38989 17.85859 17.85859 0 0 0 -14.0199 2.43994 23.583 23.583 0 0 0 -10.5601 18.67017 17.408 17.408 0 0 0 -5.05 2.3 23.5612 23.5612 0 0 0 -10.55 18.58984c-8.29992 2.2002-16.75 9.43994-17.36987 17.63013a13.37223 13.37223 0 0 0 -10.43013 3.91003 44.51868 44.51868 0 0 0 -4.15 4.72 3.98566 3.98566 0 0 0 -7.3-1.8999c-4.13 6.1799-17.32991 22.2199-28.67 22.2199-6.84 0-12.09-3.66992-14.17-9.59009 13.42-4.13989 24.43-15.01 25.00006-15.57983a4.00232 4.00232 0 0 0 -5.6601-5.66016c-.13996.15015-15.04996 14.83008-29.16996 14.83008-6.08 0-11.99-3.8999-14.88-9.37988 13.74-3.97022 25.13-15.21021 25.71-15.79a4.0023 4.0023 0 0 0 -5.66-5.66016c-.14.15011-15.05 14.83004-29.17 14.83004-9.85 0-17.03-3.3501-20.22-9.41992-2.95-5.62012-2.35-13.1001 1.46-20.12012 7.5 3.31006 15.9 3.74 24.54 1.22a48.02246 48.02246 0 0 0 21.15-12.95c9.32-10.02 22.26-36.1499 27.65-60.43994a32.22464 32.22464 0 0 1 15.2 5.04 32.37629 32.37629 0 0 0 17.87988 5.84985c.71009 0 1.41016-.03 2.12012-.07983a22.09985 22.09985 0 0 0 15.54-7.84009c6.1499-7.5 8.13989-21.44995-6.49-36.09009-16.27-16.27-41.95008-24.58008-65.09009-28.81982 9.86009-4.34004 19.84009-4.35004 30.26009-4.35004 9.25 0 17.49 2.62012 25.45 5.1499 7.9 2.51 16.02 5.09009 25.01 5.09009a44.31864 44.31864 0 0 0 4.84009-.27l48.62988 69.48c-4.57997 6.67013-6.21997 13.21993-7.80997 19.58001zm27.18-27.37012-10.27 6.84012-.87012-1.25a4.08275 4.08275 0 0 0 -.24-.34009l-50.71988-72.44991 5.89014-5.88989zm-64.67-89.58984a8.00914 8.00914 0 0 0 -1.70007 9.67993l-6.48 6.49h-.03c-7.08984 0-14.01-2.2-21.32983-4.53-8.43019-2.67997-17.9801-5.70997-29.0901-5.70997-13.48 0-28.67 0-43.81 10.16992-7.97-.98-16.24-1.63989-24.66-1.95l-4.46-4.47a8.009 8.009 0 0 0 -1.7-9.67993l-37.65-34.06999h73.33l24.29 36.43994a8.00953 8.00953 0 0 0 13.31988 0l24.29012-36.43994h73.33zm89.37-66.07004a20.02009 20.02009 0 0 1 -20 20h-109.33008a4.00271 4.00271 0 0 0 -3.32983 1.78l-23.34009 35.01-23.34-35.01a4.00277 4.00277 0 0 0 -3.33-1.78h-109.33a20.02009 20.02009 0 0 1 -20-20v-144a20.02009 20.02009 0 0 1 20-20h272a20.02009 20.02009 0 0 1 20 20z"/><path d="m162.25732 120.6543a8.01016 8.01016 0 0 0 11.28858.7539l51.771-45.2998 59.65918 39.77148a20.03621 20.03621 0 0 0 21.69385.31934l50.60694-31.62988 3.293 5.48828a4 4 0 0 0 7.00782-.26856l20-40a4 4 0 0 0 -3.57769-5.78906h-44a3.99949 3.99949 0 0 0 -3.42969 6.05762l4.24024 7.06738-44.53076 27.832-60.85645-40.57126a20.03566 20.03566 0 0 0 -24.26367 1.58887l-58.68457 51.34961a8.00006 8.00006 0 0 0 -.75342 11.28906zm54.16993-68.65821a12.0215 12.0215 0 0 1 14.55859-.9541l63.00537 42.00391a4.00043 4.00043 0 0 0 4.33887.06348l50.05176-31.28223a3.99917 3.99917 0 0 0 1.30957-5.44922l-2.62647-4.37793h30.46289l-13.84668 27.69336-1.63965-2.73242a3.99845 3.99845 0 0 0 -5.55029-1.334l-54.061 33.78809a12.02267 12.02267 0 0 1 -13.01661-.19141l-62.207-41.4707a3.99668 3.99668 0 0 0 -4.85254.31738l-54.07568 47.31641-10.53564-12.041z"/></g></svg>